<?xml version="1.0" encoding="utf-8"?>
<!-- Generator: Adobe Illustrator 17.0.0, SVG Export Plug-In . SVG Version: 6.00 Build 0)  -->
<!DOCTYPE svg PUBLIC "-//W3C//DTD SVG 1.1//EN" "http://www.w3.org/Graphics/SVG/1.1/DTD/svg11.dtd">
<svg version="1.1" id="Capa_1" xmlns="http://www.w3.org/2000/svg" xmlns:xlink="http://www.w3.org/1999/xlink" x="0px" y="0px"
	 width="30px" height="30px" viewBox="0 0 200 200" enable-background="new 0 0 200 200" xml:space="preserve" fill="#6CA4C8">
<path d="M196.188,158.228c0.334-1.678,0.039-3.516-1.279-5.161c-14.991-18.703-31.115-36.796-48.107-54.137
	c6.106-6.695,12.152-13.446,18.072-20.274c9.912-11.433,24.994-26.328,26.968-41.827c0.093-0.726-0.042-1.349-0.263-1.92
	c0.05-0.163,0.143-0.292,0.176-0.468c0.271-1.439,0.134-2.545-0.145-3.989c0.396,2.055-0.376-2.196-0.683-2.72
	c-0.506-0.864-1.346-1.691-1.979-2.49c-2.536-3.197-5.292-6.226-8.112-9.173C177.17,12.236,169.3,3.396,163.017,5.618
	c-1.828-2.272-5.152-3.214-7.647-0.394c-16.481,18.629-35.145,34.924-54.119,50.89C83.291,40.605,64.659,25.978,45.51,12.461
	c-1.07-0.755-2.192-0.374-2.916,0.419c-0.971-0.068-1.969,0.145-2.896,0.77c-4.731,3.192-8.779,7.646-12.932,11.548
	c-5.044,4.739-10.211,9.354-15.32,14.024c-0.674,0.617-1.056,1.338-1.217,2.088c-2.354,0.614-3.573,3.956-0.901,5.631
	c19.087,11.966,35.1,27.953,49.913,45.069c-1.992,1.79-4.013,3.548-5.978,5.367c-13.436,12.439-26.681,25.388-37.835,39.958
	c-4.923,6.431-16.141,20.297-10.974,29.132c1.047,1.791,3.817,1.855,4.849,0c0.132-0.238,0.283-0.46,0.416-0.697
	c2.292,4.629,6.075,8.899,9.355,12.25c4.495,4.591,11.863,12.046,18.964,11.42c0.387,1.837,2.996,2.57,4.348,1.192
	c12.475-12.719,23.739-24.017,38.603-34.359c6.516-4.534,13.183-9.017,19.7-13.704c9.373,11.205,19.06,22.144,29.732,32.137
	c9.275,8.685,22.869,21.983,36.165,22.373c1.609,0.047,2.812-0.655,3.557-1.697c7.865-3.384,15.068-9.347,20.631-15.773
	C195.036,174.685,201.921,164.145,196.188,158.228z M46.015,64.08c1.146,0.615,2.304,1.214,3.48,1.786
	c0.17,0.153,0.341,0.303,0.511,0.456c0.141,0.388,0.276,0.777,0.539,1.138c0.499,0.684,1.026,1.344,1.53,2.023
	C50.085,67.643,48.066,65.841,46.015,64.08z M30.507,171.314c-0.544,0.357-0.988,0.785-1.348,1.255
	c-0.294-0.262-0.584-0.526-0.874-0.791c1.173-0.771,2.319-1.573,3.47-2.367c0.335,0.102,0.677,0.171,1.023,0.215
	c0.036,0.056,0.077,0.108,0.115,0.162C32.101,170.3,31.296,170.797,30.507,171.314z M119.486,110.764
	c-0.652-0.487-1.304-0.974-1.95-1.469c-2.055-2.269-4.118-4.53-6.19-6.781c2.744,2.721,5.521,5.406,8.354,8.029
	C119.628,110.615,119.558,110.691,119.486,110.764z"/>
</svg>
